<svg xmlns="http://www.w3.org/2000/svg" viewBox="0 0 960 1190" font-family="'IBM Plex Sans','Segoe UI',-apple-system,sans-serif">
  <defs>
    <marker id="arr" viewBox="0 0 10 10" refX="9" refY="5" markerWidth="7" markerHeight="7" orient="auto-start-reverse">
      <path d="M0 0L10 5L0 10z" fill="#8a93a3"/>
    </marker>
    <marker id="arrTeal" viewBox="0 0 10 10" refX="9" refY="5" markerWidth="7" markerHeight="7" orient="auto-start-reverse">
      <path d="M0 0L10 5L0 10z" fill="#0b766b"/>
    </marker>
    <pattern id="dots" width="22" height="22" patternUnits="userSpaceOnUse">
      <circle cx="11" cy="11" r="1" fill="#e0ddd2"/>
    </pattern>
    <filter id="ps" x="-8%" y="-8%" width="116%" height="124%">
      <feDropShadow dx="0" dy="1.5" stdDeviation="3" flood-color="#17211c" flood-opacity=".08"/>
    </filter>
    <linearGradient id="tealbar" x1="0" y1="0" x2="1" y2="0">
      <stop offset="0" stop-color="#0b766b"/><stop offset="1" stop-color="#0d9488"/>
    </linearGradient>
  </defs>
  <style>
    .panel { fill:#ffffff; stroke:#e3e1d6; filter:url(#ps); }
    .card  { fill:#efede6; stroke:#e3e1d6; }
    .t     { fill:#17211c; font-size:15px; font-weight:600; }
    .s     { fill:#4d5560; font-size:12px; }
    .d     { fill:#667080; font-size:11px; }
    .mono  { font-family:'IBM Plex Mono','SF Mono',Consolas,monospace; }
    .lbl   { fill:#667080; font-size:10px; letter-spacing:.12em; font-weight:700; }
    .lane  { fill:#9aa2b1; font-size:9.5px; letter-spacing:.14em; font-weight:700; }
    .teal  { fill:#0b766b; }
    .green { fill:#047857; }
    .flow  { stroke:#8a93a3; stroke-width:1.6; fill:none; marker-end:url(#arr); stroke-linecap:round; }
    .flowT { stroke:#0b766b; stroke-width:1.8; fill:none; marker-end:url(#arrTeal); stroke-linecap:round; }
  </style>

  <rect width="960" height="1190" fill="#f7f6f2"/>
  <rect width="960" height="1190" fill="url(#dots)"/>
  <rect x="0" y="0" width="960" height="3" fill="url(#tealbar)"/>

  <!-- header -->
  <text x="40" y="44" class="t" font-size="13">ClearCrew <tspan fill="#9aa2b1">· system documentation</tspan></text>
  <text x="920" y="44" text-anchor="end" class="teal" font-size="11" font-weight="600">✓ recorded &#160; ✓ replayable &#160; ✓ verified &#160; ✓ exported</text>
  <line x1="40" y1="58" x2="920" y2="58" stroke="#e3e1d6"/>
  <text x="40" y="96" fill="#17211c" font-size="26" font-weight="700" letter-spacing="-.02">v1 architecture</text>
  <text x="40" y="118" class="s">no “AI cloud” in the middle — user → decision → history → execution → evidence</text>

  <!-- lane labels -->
  <text x="40" y="185" class="lane">PRESENTATION</text>
  <text x="40" y="330" class="lane">API</text>
  <text x="40" y="470" class="lane">DECISION</text>
  <text x="878" y="470" class="lane">HISTORY</text>
  <text x="40" y="723" class="lane">EXECUTION</text>
  <text x="40" y="878" class="lane">SETTLEMENT</text>
  <text x="40" y="985" class="lane">EVIDENCE</text>

  <!-- users -->
  <text x="480" y="162" class="lbl" text-anchor="middle">USERS</text>
  <text x="480" y="180" class="s" text-anchor="middle">finance team · operations · auditor</text>
  <line x1="480" y1="190" x2="480" y2="212" class="flow"/>

  <!-- web ui -->
  <rect x="300" y="215" width="360" height="66" rx="10" class="panel"/>
  <text x="480" y="242" class="t" text-anchor="middle">ClearCrew Web UI</text>
  <text x="480" y="262" class="s" text-anchor="middle">Operations · Replay · Policies · Evidence · Failures · Analytics</text>
  <line x1="480" y1="281" x2="480" y2="314" class="flow"/>
  <text x="492" y="302" class="d mono">REST (JSON) · 2.5s polling in judge mode</text>

  <!-- backend -->
  <rect x="150" y="317" width="660" height="68" rx="10" class="panel"/>
  <text x="480" y="344" class="t" text-anchor="middle">FastAPI backend <tspan class="d mono" font-weight="400">replay.py</tspan></text>
  <text x="480" y="366" class="d mono" text-anchor="middle">/api/runs · /explain · /counterfactual · /failures · /analytics · /policies · /live/*</text>

  <line x1="290" y1="385" x2="290" y2="420" class="flow"/>
  <text x="300" y="409" class="d">writes (during a run)</text>
  <line x1="670" y1="385" x2="670" y2="420" class="flow"/>
  <text x="680" y="409" class="d">reads (always)</text>

  <!-- society -->
  <rect x="110" y="424" width="360" height="158" rx="10" class="panel"/>
  <text x="130" y="452" class="t">Multi-Agent Society</text>
  <text x="130" y="470" class="d mono">agents.py · orchestrator.py</text>
  <g font-size="10.5" font-weight="700" letter-spacing=".06em">
    <rect x="130" y="484" width="52" height="20" rx="5" fill="rgba(29,78,216,.08)"/><text x="156" y="498" fill="#1d4ed8" text-anchor="middle">INTAKE</text>
    <rect x="188" y="484" width="82" height="20" rx="5" fill="rgba(109,40,217,.09)"/><text x="229" y="498" fill="#6d28d9" text-anchor="middle">COMPLIANCE</text>
    <rect x="276" y="484" width="70" height="20" rx="5" fill="rgba(126,34,206,.09)"/><text x="311" y="498" fill="#7e22ce" text-anchor="middle">TREASURY</text>
    <rect x="130" y="510" width="80" height="20" rx="5" fill="rgba(180,83,9,.10)"/><text x="170" y="524" fill="#92400e" text-anchor="middle">RESOLUTION</text>
    <rect x="216" y="510" width="60" height="20" rx="5" fill="rgba(5,150,105,.10)"/><text x="246" y="524" fill="#047857" text-anchor="middle">AUDITOR</text>
    <rect x="282" y="510" width="102" height="20" rx="5" fill="#efede6"/><text x="333" y="524" fill="#667080" text-anchor="middle">ORCHESTRATOR</text>
  </g>
  <text x="130" y="552" class="d">Qwen models (llm.py)</text>
  <text x="130" y="570" class="d">Policy v1, executable (policy.py)</text>

  <!-- event store -->
  <rect x="530" y="424" width="320" height="158" rx="10" class="panel"/>
  <text x="550" y="452" class="t">Append-only Event Store</text>
  <text x="550" y="470" class="d mono">events.py</text>
  <text x="550" y="496" class="s mono">runs/events-*.jsonl</text>
  <text x="550" y="514" class="s mono">runs/results-*.json</text>
  <rect x="550" y="530" width="150" height="22" rx="5" fill="rgba(13,148,136,.10)"/>
  <text x="625" y="545" class="teal" font-size="11" font-weight="700" text-anchor="middle">sha256 hash chain</text>
  <text x="550" y="572" class="d mono">prev_hash → event_hash</text>

  <line x1="470" y1="486" x2="527" y2="486" class="flowT"/>
  <text x="498" y="476" class="teal mono" font-size="10.5" text-anchor="middle">emit()</text>

  <!-- replay engine -->
  <line x1="690" y1="582" x2="690" y2="614" class="flow"/>
  <text x="700" y="604" class="d mono">state = fold(events)</text>
  <rect x="530" y="617" width="320" height="74" rx="10" class="panel"/>
  <text x="550" y="643" class="t">Replay · Explain · Counterfactual</text>
  <text x="550" y="662" class="s">reconstructs the recorded trace —</text>
  <text x="550" y="678" class="s">replay ≠ recompute, nothing re-generated</text>

  <!-- decision arrow to verasettle -->
  <line x1="290" y1="582" x2="290" y2="712" class="flowT"/>
  <text x="300" y="632" class="teal mono" font-size="11" font-weight="600">payout.approved</text>
  <text x="300" y="648" class="d">terminal decision, on the record</text>

  <!-- verasettle -->
  <rect x="110" y="715" width="360" height="110" rx="10" class="panel"/>
  <text x="130" y="743" class="t">Verasettle Engine</text>
  <text x="130" y="761" class="d mono">settlement.py</text>
  <text x="130" y="785" class="s">non-custodial USDC payout orchestrator</text>
  <text x="130" y="803" class="s">per-item idempotency · receipts required</text>

  <line x1="290" y1="825" x2="290" y2="860" class="flow"/>
  <text x="300" y="849" class="d">one single-item batch per approved payout</text>

  <!-- rails -->
  <rect x="110" y="863" width="360" height="68" rx="10" class="card" filter="url(#ps)"/>
  <text x="130" y="890" class="t">Circle stack · Base Sepolia</text>
  <text x="130" y="910" class="s">real testnet USDC — 1:10,000 scale, recorded in every event</text>

  <line x1="290" y1="931" x2="290" y2="966" class="flowT"/>
  <text x="300" y="948" class="teal mono" font-size="11" font-weight="600">settlement.confirmed → tx hash</text>
  <text x="300" y="963" class="d mono" font-size="10.5">checkable on any Base Sepolia RPC</text>

  <!-- evidence -->
  <rect x="110" y="969" width="480" height="134" rx="10" class="panel"/>
  <text x="130" y="997" class="t">Evidence Pack <tspan class="d" font-weight="400">(per payout)</tspan></text>
  <text x="130" y="1022" class="s">decision · full event chain · policy v1</text>
  <text x="130" y="1040" class="s">settlement receipt · hash verification</text>
  <text x="130" y="1066" class="d mono">Export JSON / PDF, or</text>
  <text x="130" y="1082" class="d mono">GET /api/runs/{run}/explain/{payout}</text>

  <!-- trust invariant callout -->
  <rect x="640" y="969" width="210" height="134" rx="10" fill="#ffffff" stroke="#0b766b" stroke-width="1.5" filter="url(#ps)"/>
  <rect x="640" y="969" width="210" height="30" rx="10" fill="rgba(13,148,136,.08)"/>
  <rect x="640" y="989" width="210" height="10" fill="rgba(13,148,136,.08)"/>
  <text x="660" y="989" class="lbl teal">TRUST INVARIANT</text>
  <text x="660" y="1022" class="s">every payout can be:</text>
  <text x="660" y="1044" class="green" font-size="12.5" font-weight="600">✓ replayed</text>
  <text x="660" y="1062" class="green" font-size="12.5" font-weight="600">✓ explained</text>
  <text x="660" y="1080" class="green" font-size="12.5" font-weight="600">✓ verified</text>
  <text x="660" y="1098" class="green" font-size="12.5" font-weight="600">✓ exported</text>

  <line x1="590" y1="691" x2="590" y2="967" class="flow" stroke-dasharray="4 5"/>
  <text x="600" y="836" class="d">every fold is</text>
  <text x="600" y="851" class="d">export-ready</text>

  <!-- footer -->
  <line x1="40" y1="1136" x2="920" y2="1136" stroke="#e3e1d6"/>
  <text x="40" y="1160" class="d">Every box is a file in this repo or a recorded event you can replay.</text>
  <text x="920" y="1160" text-anchor="end" class="d mono">docs/ARCHITECTURE.md · clearcrew.verasettle.com</text>
</svg>
